<svg width="48" height="49" viewBox="0 0 48 49" fill="none" xmlns="http://www.w3.org/2000/svg">
<rect y="0.5" width="48" height="48" rx="12" fill="#EEEFF6"/>
<path d="M25.0915 20.805L25.0917 20.8051L28.8807 24.2912L28.9389 24.3527C28.9391 24.353 28.9393 24.3533 28.9395 24.3536L28.9507 24.3717L28.9596 24.3864L28.9604 24.3876C28.9606 24.3881 28.9608 24.3885 28.961 24.3889L28.9691 24.4078L28.9757 24.4238L28.9759 24.4241C28.976 24.4244 28.9761 24.4247 28.9761 24.425L28.981 24.4442L28.9845 24.4586L28.9852 24.4651C28.9861 24.473 28.9856 24.4684 28.9861 24.4727L28.9877 24.4866L28.9828 24.5351L28.981 24.5527L28.9808 24.5577L28.9766 24.5718L28.9713 24.5883C28.9713 24.5885 28.9712 24.5886 28.9712 24.5887L28.9623 24.6071L28.9546 24.6228L28.9543 24.6236C28.9542 24.6236 28.9542 24.6237 28.9542 24.6237L28.942 24.6417L28.933 24.6548L28.9311 24.6578C28.9298 24.6593 28.9285 24.6607 28.9273 24.662L28.9137 24.677L28.9051 24.6862L28.901 24.691C28.9003 24.6917 28.8994 24.6926 28.8982 24.6936L28.8962 24.6955L25.0918 28.1935L25.0908 28.1945C25.0212 28.2588 24.921 28.298 24.8109 28.298C24.6985 28.298 24.5991 28.2583 24.5313 28.1949L24.5291 28.1928C24.4062 28.0789 24.4062 27.9164 24.5302 27.8022L26.6611 25.8415L27.793 24.8H26.2548H12.9741C12.7222 24.8 12.6 24.6216 12.6 24.5C12.6 24.3784 12.7222 24.2 12.9741 24.2H26.2548H27.7923L26.6612 23.1586L24.5302 21.1966C24.5302 21.1966 24.5302 21.1966 24.5302 21.1966C24.4062 21.0824 24.4062 20.9199 24.5291 20.806C24.6797 20.6664 24.9408 20.6662 25.0915 20.805ZM30.2526 13.1C33.1348 13.1 35.4 15.2573 35.4 17.81V31.1768C35.4 33.7367 33.1283 35.9 30.2383 35.9H23.8935C21.0115 35.9 18.7474 33.7429 18.7474 31.19V30.0596C18.7474 29.938 18.8696 29.7596 19.1215 29.7596C19.3735 29.7596 19.4957 29.938 19.4957 30.0596V31.19C19.4957 33.4993 21.5137 35.3 23.8935 35.3H30.2383C32.6268 35.3 34.6517 33.4961 34.6517 31.1768V17.81C34.6517 15.5004 32.6321 13.7 30.2526 13.7H23.9078C21.5208 13.7 19.4957 15.5037 19.4957 17.8208V18.9404C19.4957 19.062 19.3735 19.2404 19.1215 19.2404C18.8696 19.2404 18.7474 19.062 18.7474 18.9404V17.8208C18.7474 15.2622 21.0177 13.1 23.9078 13.1H30.2526Z" stroke="#222222" stroke-width="1.2"/>
</svg>
