<svg width="20" height="21" viewBox="0 0 20 21" fill="none" xmlns="http://www.w3.org/2000/svg">
<path d="M4.87028 9.27789C5.16695 9.62872 7.82612 12.7104 10.0094 12.7104C12.1952 12.7104 14.8277 9.62622 15.1202 9.27455C15.3411 9.01039 15.3052 8.61618 15.0411 8.39535C14.7744 8.17451 14.3819 8.21035 14.1602 8.47451C13.1969 9.62872 11.2177 11.4604 10.0094 11.4604C8.79942 11.4604 6.80195 9.62705 5.82612 8.47201C5.60362 8.20785 5.20945 8.17451 4.94612 8.39701C4.68195 8.61951 4.64862 9.01372 4.87028 9.27789Z" fill="#222222" fill-opacity="0.6"/>
<path fill-rule="evenodd" clip-rule="evenodd" d="M1.4388 11.3333C1.4388 17.4042 3.67963 19.5558 9.99966 19.5558C16.3205 19.5558 18.5613 17.4042 18.5613 11.3333C18.5613 5.26251 16.3205 3.11084 9.99966 3.11084C3.67963 3.11084 1.4388 5.26251 1.4388 11.3333ZM2.6888 11.3333C2.6888 5.99001 4.39713 4.36084 9.99966 4.36084C15.603 4.36084 17.3113 5.99001 17.3113 11.3333C17.3113 16.6767 15.603 18.3058 9.99966 18.3058C4.39713 18.3058 2.6888 16.6767 2.6888 11.3333Z" fill="#222222" fill-opacity="0.6"/>
</svg>
