<svg width="20" height="21" viewBox="0 0 20 21" fill="none" xmlns="http://www.w3.org/2000/svg">
<path fill-rule="evenodd" clip-rule="evenodd" d="M6.45841 6.74992C6.45841 6.28482 6.55002 5.82428 6.72801 5.39458C6.90599 4.96489 7.16687 4.57446 7.49574 4.24558C7.82462 3.91671 8.21505 3.65583 8.64474 3.47785C9.07444 3.29986 9.53498 3.20825 10.0001 3.20825C10.4652 3.20825 10.9257 3.29986 11.3554 3.47785C11.7851 3.65583 12.1755 3.91671 12.5044 4.24558C12.8333 4.57446 13.0942 4.96489 13.2722 5.39458C13.4501 5.82428 13.5417 6.28482 13.5417 6.74992C13.5417 7.68923 13.1686 8.59006 12.5044 9.25426C11.8402 9.91845 10.9394 10.2916 10.0001 10.2916C9.06077 10.2916 8.15994 9.91845 7.49574 9.25426C6.83155 8.59006 6.45841 7.68923 6.45841 6.74992ZM10.0001 4.45825C9.39229 4.45825 8.8094 4.69969 8.37963 5.12947C7.94986 5.55924 7.70842 6.14213 7.70842 6.74992C7.70842 7.35771 7.94986 7.9406 8.37963 8.37037C8.8094 8.80014 9.39229 9.04159 10.0001 9.04159C10.6079 9.04159 11.1908 8.80014 11.6205 8.37037C12.0503 7.9406 12.2917 7.35771 12.2917 6.74992C12.2917 6.14213 12.0503 5.55924 11.6205 5.12947C11.1908 4.69969 10.6079 4.45825 10.0001 4.45825ZM6.66675 12.7916C6.16947 12.7916 5.69255 12.9891 5.34092 13.3408C4.98929 13.6924 4.79175 14.1693 4.79175 14.6666V15.6566C4.79175 15.6716 4.80258 15.6849 4.81758 15.6874C8.25008 16.2474 11.7509 16.2474 15.1826 15.6874C15.1897 15.6858 15.196 15.6819 15.2007 15.6763C15.2053 15.6708 15.2081 15.6638 15.2084 15.6566V14.6666C15.2084 14.1693 15.0109 13.6924 14.6592 13.3408C14.3076 12.9891 13.8307 12.7916 13.3334 12.7916H13.0501C13.0278 12.792 13.0056 12.7953 12.9842 12.8016L12.2634 13.0374C10.7927 13.5176 9.20743 13.5176 7.73675 13.0374L7.01508 12.8016C6.99422 12.7955 6.97265 12.7921 6.95091 12.7916H6.66675ZM3.54175 14.6666C3.54175 13.8378 3.87099 13.0429 4.45704 12.4569C5.04309 11.8708 5.83795 11.5416 6.66675 11.5416H6.95008C7.10564 11.5421 7.25675 11.566 7.40341 11.6133L8.12508 11.8491C9.34344 12.2468 10.6567 12.2468 11.8751 11.8491L12.5967 11.6133C12.7426 11.5658 12.8959 11.5416 13.0492 11.5416H13.3334C14.1622 11.5416 14.9571 11.8708 15.5431 12.4569C16.1292 13.0429 16.4584 13.8378 16.4584 14.6666V15.6566C16.4584 16.2849 16.0034 16.8199 15.3834 16.9208C11.8181 17.5027 8.18204 17.5027 4.61675 16.9208C4.3169 16.8714 4.04429 16.7173 3.84743 16.4858C3.65058 16.2543 3.54226 15.9605 3.54175 15.6566V14.6666Z" fill="#222222" fill-opacity="0.6"/>
</svg>
