<svg width="20" height="21" viewBox="0 0 20 21" fill="none" xmlns="http://www.w3.org/2000/svg">
<path fill-rule="evenodd" clip-rule="evenodd" d="M2.98578 17.8444C3.10745 17.9669 3.26745 18.0277 3.42745 18.0277C3.58745 18.0277 3.74745 17.9669 3.86911 17.8444L5.72454 15.9889C5.76852 15.9556 5.80866 15.9158 5.84346 15.87L17.0141 4.69937C17.2583 4.45521 17.2583 4.05937 17.0141 3.81521C16.77 3.57104 16.375 3.57104 16.1308 3.81521L14.5657 5.3804C13.1698 4.55674 11.6003 4.12361 9.99662 4.12361C5.38 4.12361 1.66333 7.79361 1.66333 10.8319C1.66333 12.4567 2.70994 14.2538 4.38044 15.5663L2.98578 16.9611C2.74161 17.2052 2.74161 17.6002 2.98578 17.8444ZM5.27195 14.6747C3.84428 13.5956 2.91333 12.0982 2.91333 10.8319C2.91333 8.37528 6.18166 5.37361 9.99662 5.37361C11.2689 5.37361 12.5173 5.69143 13.6481 6.29804L11.8203 8.12595C11.2854 7.7657 10.6473 7.56661 9.99821 7.56661H9.99071C9.11987 7.56827 8.30239 7.90911 7.68739 8.52577C7.07322 9.14241 6.73572 9.96157 6.73822 10.8282C6.73571 11.4784 6.93415 12.1171 7.29541 12.6512L5.27195 14.6747ZM8.20622 11.7402L10.909 9.03724C10.6285 8.89399 10.315 8.81661 9.99737 8.81661H9.99321C9.45571 8.81744 8.95154 9.02741 8.57321 9.40741C8.19489 9.78824 7.98656 10.2924 7.98822 10.8291C7.98672 11.1478 8.06355 11.4607 8.20622 11.7402Z" fill="#222222" fill-opacity="0.6"/>
<path d="M9.99529 17.5411C9.20612 17.5411 8.41362 17.4328 7.63694 17.2178C7.30444 17.1261 7.10944 16.7819 7.2011 16.4494C7.29277 16.1161 7.63944 15.9219 7.97027 16.0136C8.63779 16.1978 9.31862 16.2911 9.99529 16.2911C13.8145 16.2911 17.087 13.2894 17.087 10.8319C17.087 10.0361 16.717 9.12861 16.0461 8.27864C15.8328 8.0078 15.8795 7.61447 16.1503 7.4003C16.4211 7.18697 16.8145 7.2328 17.0278 7.50364C17.872 8.57447 18.337 9.75611 18.337 10.8319C18.337 13.8711 14.6161 17.5411 9.99529 17.5411Z" fill="#222222" fill-opacity="0.6"/>
<path d="M10.4718 14.0417C10.1759 14.0417 9.91342 13.8308 9.85759 13.53C9.79509 13.1908 10.0201 12.8642 10.3601 12.8025C11.1759 12.6517 11.8243 12.0033 11.9718 11.1867C12.0334 10.8467 12.3576 10.6233 12.6984 10.6833C13.0376 10.745 13.2634 11.07 13.2018 11.41C12.9618 12.735 11.9109 13.7875 10.5851 14.0308C10.5476 14.0383 10.5093 14.0417 10.4718 14.0417Z" fill="#222222" fill-opacity="0.6"/>
</svg>
