<svg width="20" height="21" viewBox="0 0 20 21" fill="none" xmlns="http://www.w3.org/2000/svg">
<path fill-rule="evenodd" clip-rule="evenodd" d="M10.0018 8.86353C8.8919 8.86353 7.99182 9.76303 7.99182 10.8735C7.99182 11.9834 8.89198 12.8835 10.0018 12.8835C11.1116 12.8835 12.0118 11.9834 12.0118 10.8735C12.0118 9.76303 11.1118 8.86353 10.0018 8.86353ZM6.74182 10.8735C6.74182 9.07236 8.20177 7.61353 10.0018 7.61353C11.8019 7.61353 13.2618 9.07236 13.2618 10.8735C13.2618 12.6737 11.802 14.1335 10.0018 14.1335C8.20165 14.1335 6.74182 12.6737 6.74182 10.8735Z" fill="#222222" fill-opacity="0.6"/>
<path fill-rule="evenodd" clip-rule="evenodd" d="M4.14648 6.32855C5.64181 5.06431 7.70915 4.16333 10.0018 4.16333C12.2941 4.16333 14.3614 5.06361 15.8568 6.32754C17.3361 7.57771 18.3368 9.25834 18.3368 10.8733C18.3368 12.4883 17.3361 14.1689 15.8568 15.4191C14.3614 16.6831 12.2941 17.5833 10.0018 17.5833C7.70915 17.5833 5.64181 16.6823 4.14648 15.4181C2.6675 14.1677 1.66687 12.4871 1.66687 10.8733C1.66687 9.25959 2.6675 7.57896 4.14648 6.32855ZM4.95352 7.28311C3.64209 8.39186 2.91687 9.75375 2.91687 10.8733C2.91687 11.9929 3.64209 13.3548 4.95352 14.4636C6.2486 15.5585 8.03626 16.3333 10.0018 16.3333C11.9672 16.3333 13.7548 15.559 15.05 14.4644C16.3614 13.356 17.0868 11.9942 17.0868 10.8733C17.0868 9.7525 16.3614 8.39061 15.05 7.28224C13.7548 6.18763 11.9672 5.41333 10.0018 5.41333C8.03626 5.41333 6.2486 6.18818 4.95352 7.28311Z" fill="#222222" fill-opacity="0.6"/>
</svg>
