<svg width="48" height="49" viewBox="0 0 48 49" fill="none" xmlns="http://www.w3.org/2000/svg">
<rect y="0.5" width="48" height="48" rx="12" fill="#EEEFF6"/>
<path d="M21.8765 33.5453C25.7215 33.5453 29.0035 32.9633 29.0035 30.6363C29.0035 28.3093 25.7415 27.7063 21.8765 27.7063C18.0325 27.7063 14.7495 28.2873 14.7495 30.6153C14.7495 32.213 16.2865 32.9978 18.4999 33.3329" stroke="#222222" stroke-width="1.8" stroke-linecap="round" stroke-linejoin="round"/>
<path fill-rule="evenodd" clip-rule="evenodd" d="M21.8766 24.3858C24.3996 24.3858 26.4446 22.3408 26.4446 19.8178C26.4446 17.2948 24.3996 15.2498 21.8766 15.2498C19.3546 15.2498 17.3096 17.2948 17.3096 19.8178C17.3006 22.3318 19.3306 24.3768 21.8456 24.3858H21.8766Z" stroke="#222222" stroke-width="1.8" stroke-linecap="round" stroke-linejoin="round"/>
<path d="M31.2036 21.1692V25.1792" stroke="#222222" stroke-width="1.8" stroke-linecap="round" stroke-linejoin="round"/>
<path d="M33.2497 23.1741H29.1597" stroke="#222222" stroke-width="1.8" stroke-linecap="round" stroke-linejoin="round"/>
</svg>
