<svg width="20" height="21" viewBox="0 0 20 21" fill="none" xmlns="http://www.w3.org/2000/svg">
<path d="M10.0004 15.0535C9.65542 15.0535 9.37542 14.7735 9.37542 14.4285V12.5776C9.37542 12.2326 9.65542 11.9526 10.0004 11.9526C10.3454 11.9526 10.6254 12.2326 10.6254 12.5776V14.4285C10.6254 14.7735 10.3454 15.0535 10.0004 15.0535Z" fill="#222222" fill-opacity="0.6"/>
<path fill-rule="evenodd" clip-rule="evenodd" d="M14.4249 8.21859C16.2563 9.05273 17.0086 10.6756 17.0086 13.3605C17.0086 17.6263 15.1094 19.2121 10.0003 19.2121C4.89111 19.2121 2.99194 17.6263 2.99194 13.3605C2.99194 10.676 3.74405 9.05315 5.57495 8.21889V6.80966C5.61412 4.38966 7.53245 2.47883 9.94159 2.448C11.1399 2.45383 12.2433 2.87966 13.0891 3.70466C13.9366 4.53133 14.4108 5.63633 14.4249 6.81883V8.21859ZM13.5052 9.1684C13.5573 9.19632 13.6138 9.21706 13.6733 9.22931C15.2285 9.82898 15.7586 11.0741 15.7586 13.3605C15.7586 16.9305 14.4669 17.9621 10.0003 17.9621C5.53361 17.9621 4.24194 16.9305 4.24194 13.3605C4.24194 11.0736 4.77219 9.82856 6.32804 9.22898C6.38663 9.21681 6.44223 9.1964 6.49356 9.16898C7.3498 8.8769 8.49467 8.75965 10.0003 8.75965C11.5048 8.75965 12.6492 8.87673 13.5052 9.1684ZM6.82495 7.80628V6.81966C6.85245 5.09133 8.22828 3.71966 9.95825 3.698C10.8216 3.69216 11.6099 4.008 12.2174 4.6005C12.8249 5.193 13.1649 5.9855 13.1749 6.82633V7.80613C12.2938 7.60323 11.2418 7.50965 10.0003 7.50965C8.7585 7.50965 7.70631 7.60328 6.82495 7.80628Z" fill="#222222" fill-opacity="0.6"/>
</svg>
